<?xml version="1.0" standalone="no"?>
<!DOCTYPE svg PUBLIC "-//W3C//DTD SVG 20010904//EN"
 "http://www.w3.org/TR/2001/REC-SVG-20010904/DTD/svg10.dtd">
<svg version="1.0" xmlns="http://www.w3.org/2000/svg"
 width="858.000000pt" height="858.000000pt" viewBox="0 0 858.000000 858.000000"
 preserveAspectRatio="xMidYMid meet">
<metadata>
Created by potrace 1.14, written by Peter Selinger 2001-2017
</metadata>
<g transform="translate(0.000000,858.000000) scale(0.100000,-0.100000)"
fill="#000000" stroke="none">
<path d="M6653 8314 c-23 -14 -71 -30 -110 -35 -52 -9 -78 -19 -112 -45 -24
-19 -54 -34 -66 -34 -17 0 -26 -11 -40 -47 -10 -27 -32 -70 -48 -97 -26 -42
-30 -59 -32 -128 -1 -60 2 -85 14 -99 14 -17 18 -18 35 -6 13 9 19 30 23 73 2
32 10 65 17 72 16 17 44 6 51 -21 10 -36 29 -69 51 -92 19 -19 20 -31 19 -220
-1 -123 -6 -211 -13 -228 -7 -15 -34 -50 -62 -78 -27 -27 -50 -58 -50 -67 0
-9 34 -48 76 -87 42 -38 82 -86 91 -105 13 -30 15 -122 14 -710 0 -371 -3
-688 -7 -705 -4 -16 -13 -39 -20 -51 -15 -22 -25 -80 -16 -89 3 -3 7 -11 8
-18 2 -7 7 -25 11 -42 14 -48 5 -157 -16 -190 -3 -5 -7 -62 -8 -125 -3 -231
-5 -250 -25 -275 l-19 -25 -30 32 c-35 39 -45 66 -30 81 6 6 11 28 11 49 l0
39 -32 -17 c-18 -9 -35 -20 -38 -24 -23 -32 -208 -37 -255 -6 -14 9 -25 20
-25 25 0 15 -40 0 -67 -25 -25 -23 -33 -24 -85 -10 -39 11 -45 52 -43 306 2
214 2 215 30 270 l28 55 4 511 4 511 -30 26 c-20 16 -34 41 -42 72 -10 39 -18
50 -45 61 -18 8 -42 14 -53 14 -11 0 -30 14 -44 31 -23 30 -26 31 -117 33
-117 3 -135 0 -169 -34 -16 -17 -42 -30 -64 -33 -44 -6 -66 -26 -79 -74 -5
-20 -21 -53 -35 -75 -14 -21 -27 -53 -30 -70 -2 -18 -5 -462 -6 -986 -2 -941
-2 -954 -22 -968 -19 -14 -23 -12 -63 31 -26 30 -46 64 -53 92 -17 65 -42 78
-157 77 -125 -1 -132 -8 -132 -140 0 -97 13 -144 38 -144 9 0 34 -20 57 -43
52 -55 56 -102 13 -146 -27 -26 -36 -51 -37 -99 -1 -13 -16 -36 -33 -53 l-33
-29 1 -308 0 -307 32 -65 c28 -58 32 -74 28 -126 -3 -39 -13 -75 -28 -99 -29
-50 -28 -43 -32 -220 -6 -227 -25 -254 -184 -260 -88 -4 -127 -15 -175 -48
l-27 -19 -15 35 c-12 29 -14 109 -10 498 3 255 8 476 11 490 3 14 16 36 29 47
l24 21 1 343 c2 783 1 1055 -5 1070 -9 22 -37 28 -131 27 -90 -1 -119 8 -153
45 -23 25 -30 26 -126 26 -72 0 -106 -4 -121 -14 -24 -17 -24 -19 -29 -397 -1
-130 -6 -247 -10 -260 -4 -13 -16 -30 -26 -37 -10 -7 -21 -27 -24 -45 -4 -18
-8 -213 -9 -435 -2 -221 -5 -404 -7 -406 -2 -2 -14 -7 -27 -10 -17 -6 -24 -3
-30 13 -4 12 -6 270 -5 573 l2 553 26 21 c52 41 39 66 -108 203 -42 39 -73 99
-65 128 3 14 -14 75 -34 123 -25 58 -28 72 -32 146 -3 66 -29 117 -96 194 -17
19 -42 59 -56 89 -29 65 -61 94 -136 128 -52 23 -59 30 -69 67 -7 22 -22 51
-35 63 -13 12 -26 32 -29 45 -3 13 -7 169 -8 348 -3 354 -3 352 -64 417 -26
28 -35 31 -88 31 -33 0 -101 3 -151 5 -94 5 -151 -9 -194 -48 -8 -7 -30 -15
-49 -17 -23 -3 -42 -13 -55 -31 -19 -26 -20 -42 -21 -460 -1 -504 -4 -487 79
-487 89 0 138 -25 179 -92 l17 -27 -53 -24 c-28 -14 -69 -30 -90 -37 -22 -7
-51 -18 -65 -26 -15 -8 -32 -14 -37 -14 -26 0 -32 -73 -31 -332 1 -318 -5
-301 114 -304 114 -2 117 -3 138 -18 17 -13 17 -16 4 -30 -12 -12 -45 -17
-141 -20 -139 -5 -165 -13 -223 -70 -30 -30 -33 -39 -29 -73 3 -24 16 -50 34
-69 l30 -31 -1 -1191 c0 -655 -3 -1198 -6 -1206 -3 -8 -13 -17 -22 -21 -22 -8
-574 -7 -610 1 -15 4 -40 17 -55 30 -35 29 -84 43 -134 38 -43 -4 -93 12 -93
31 0 7 -12 15 -27 18 -24 4 -36 -4 -89 -59 l-60 -64 -13 24 c-7 13 -24 30 -37
37 -22 11 -27 10 -52 -12 -40 -36 -70 -48 -137 -52 -74 -5 -84 -8 -168 -47
-38 -18 -86 -33 -110 -34 -25 0 -48 -8 -58 -18 -8 -9 -29 -20 -45 -23 -96 -20
-105 -10 -108 117 -1 52 -8 103 -15 117 l-13 23 -21 -20 c-18 -19 -21 -34 -22
-144 -2 -131 -11 -163 -57 -206 -94 -88 -116 -112 -137 -147 -14 -24 -24 -60
-26 -90 -2 -27 -4 -54 -4 -58 -1 -4 -12 -18 -26 -31 -19 -18 -28 -42 -40 -108
-8 -46 -24 -106 -36 -134 -29 -62 -34 -121 -26 -297 4 -70 7 -81 33 -108 23
-24 29 -40 30 -79 2 -37 13 -68 43 -123 23 -41 41 -82 41 -92 0 -9 13 -29 29
-45 17 -18 31 -44 35 -69 3 -22 12 -45 19 -51 6 -5 32 -28 57 -50 25 -22 49
-40 55 -41 5 0 21 -2 33 -3 14 -2 44 -25 70 -53 56 -60 85 -80 132 -88 19 -3
49 -17 67 -31 18 -14 56 -32 83 -40 27 -8 54 -23 60 -33 5 -10 17 -22 27 -26
10 -4 402 -9 871 -11 l852 -3 23 -22 c12 -11 32 -25 43 -29 12 -5 498 -9 1080
-10 583 0 1660 -2 2395 -3 l1336 -1 37 32 c20 18 44 32 54 33 81 4 152 18 152
29 0 21 68 51 118 53 18 1 307 290 337 337 14 22 25 46 25 54 0 8 19 52 43 98
23 45 44 101 46 123 3 43 12 65 37 89 8 9 15 24 15 33 -1 10 -1 25 -1 33 -1 8
2 71 6 138 5 108 4 129 -12 165 -10 23 -27 51 -36 61 -10 11 -18 26 -18 33 0
12 -31 92 -65 168 -7 17 -23 62 -34 100 -14 46 -31 80 -51 99 -19 18 -36 51
-46 88 -12 42 -25 64 -45 79 -16 11 -26 26 -23 33 8 21 -23 74 -77 131 -47 50
-80 109 -73 131 6 15 -342 361 -384 383 -20 10 -63 19 -96 20 -40 2 -65 8 -78
21 -27 25 -62 30 -164 23 -113 -7 -132 -7 -226 0 -102 7 -110 -1 -113 -120 -2
-49 -6 -96 -10 -105 -9 -22 -37 -18 -72 10 -15 12 -34 22 -43 23 -65 3 -82 22
-87 100 -4 76 -16 99 -51 100 -83 4 -92 11 -92 70 0 23 7 42 21 55 11 10 41
40 67 65 26 26 66 58 89 72 55 35 86 66 129 135 20 31 51 75 70 98 39 48 142
254 136 272 -2 6 0 12 5 12 5 0 17 15 28 32 16 29 19 56 21 218 2 102 4 210 4
240 2 80 -9 131 -33 150 -34 28 -28 56 19 95 41 34 94 113 94 141 0 8 5 14 10
14 6 0 10 6 10 13 1 6 9 30 20 52 11 22 19 43 20 47 0 15 -111 118 -128 119
-9 0 -30 2 -45 3 -16 1 -30 -1 -33 -5 -2 -4 -19 -4 -36 0 -45 10 -93 -4 -116
-34 -26 -32 -44 -32 -64 3 -9 15 -31 39 -49 53 -44 32 -92 79 -82 79 4 0 3 4
-4 8 -7 4 -14 25 -16 46 -3 26 -13 45 -31 60 -23 18 -28 30 -32 90 -3 50 -12
83 -31 116 l-25 45 26 39 c14 21 26 46 27 55 0 9 1 147 2 306 2 251 5 294 19
320 55 97 56 112 11 165 -14 17 -27 48 -30 69 -5 35 -1 43 31 75 32 32 36 43
37 89 0 29 2 147 3 263 1 116 6 215 9 222 4 6 3 13 -2 16 -9 6 -6 50 5 67 2 4
0 10 -4 13 -14 8 -1 59 18 76 27 24 43 89 45 183 1 87 1 88 -32 124 -28 29
-33 42 -31 74 1 22 9 48 19 57 9 10 22 29 29 43 12 21 15 39 19 126 1 12 14
34 30 50 15 16 32 39 36 53 4 13 14 39 23 59 9 20 16 38 16 41 2 15 42 97 54
113 15 17 77 24 98 9 15 -10 36 -51 30 -60 -8 -13 23 -45 39 -39 17 7 17 12
17 206 0 123 -2 137 -23 164 -12 17 -30 51 -39 76 -11 33 -24 50 -45 59 -17 7
-37 17 -45 22 -8 5 -33 20 -55 34 -22 13 -58 27 -80 30 -22 4 -51 17 -65 31
l-25 23 -42 -24z m-3886 -1525 c21 -11 42 -68 35 -93 -2 -4 -3 -27 -2 -50 0
-37 0 -120 -1 -216 0 -19 1 -121 2 -226 1 -200 -4 -227 -43 -237 -33 -9 -88
12 -88 33 0 10 6 23 13 27 8 4 21 19 30 33 13 22 15 65 13 315 -2 288 -2 290
-28 345 -14 30 -22 60 -17 65 11 15 61 17 86 4z m2833 -89 c0 -5 -11 -17 -25
-28 -37 -29 -44 -59 -46 -199 -1 -130 -7 -155 -41 -183 -18 -14 -19 -53 -24
-1045 -9 -1723 -8 -1675 -35 -1675 -19 0 -33 -49 -35 -125 -1 -44 -3 -134 -3
-201 -1 -102 -4 -124 -19 -142 -17 -20 -19 -20 -33 -4 -12 14 -14 143 -14 854
0 461 -3 838 -6 838 -4 0 -4 15 0 33 6 28 7 82 1 97 -1 3 -1 10 0 15 2 8 1
104 -1 175 0 8 0 48 1 87 1 40 -1 77 -5 83 -3 5 -1 10 5 10 7 0 9 8 5 19 -3
10 -6 322 -7 692 -2 733 -3 708 54 728 16 6 28 8 28 5 0 -7 61 27 78 43 11 10
24 5 68 -28 30 -23 54 -45 54 -49z m70 -1795 c0 -693 -3 -860 -14 -886 l-14
-32 -15 24 c-19 28 -20 95 -18 1150 1 541 3 608 18 628 l16 24 14 -27 c12 -23
14 -166 13 -881z m-2592 799 c28 -25 52 -49 52 -53 0 -4 -15 -24 -34 -43 l-34
-35 3 -169 c3 -127 7 -171 17 -179 26 -19 46 -56 41 -76 -3 -11 -17 -28 -30
-39 -26 -20 -26 -46 -1 -55 7 -2 27 -10 43 -16 17 -7 34 -13 40 -13 18 -2 17
-34 -2 -44 -10 -5 -89 -9 -175 -8 -197 2 -200 3 -197 109 3 137 2 141 -37 181
-33 34 -35 40 -33 94 2 61 10 85 40 118 11 11 21 34 22 50 6 46 24 74 101 151
89 90 108 93 184 27z m168 -877 c10 -5 11 -25 5 -59 0 -5 -8 -8 -16 -8 -22 0
-32 -30 -31 -97 1 -35 -2 -63 -6 -63 -4 0 -4 -10 0 -22 7 -23 8 -160 1 -188
-2 -8 -16 -28 -31 -45 -22 -23 -28 -40 -28 -75 -1 -25 -3 -278 -5 -564 -4
-448 -6 -521 -20 -540 -8 -11 -22 -31 -30 -42 -12 -16 -16 -56 -19 -156 -4
-137 -11 -166 -46 -191 -17 -12 -27 -36 -29 -74 -1 -17 -51 -40 -79 -35 -12 2
-26 11 -31 20 -5 9 -7 155 -6 324 2 283 4 309 21 334 42 60 44 68 43 184 0 63
0 120 1 125 1 6 2 15 1 20 -1 6 -1 75 -1 155 0 80 0 183 -1 230 0 47 -1 91 0
98 2 25 2 38 0 99 -1 35 0 65 3 68 3 4 2 21 -2 40 -4 19 -6 36 -3 39 2 2 4 56
4 119 0 168 -3 163 104 172 67 5 91 23 98 73 6 35 24 65 36 58 4 -3 13 -1 20
4 15 9 30 8 47 -3z m2989 -434 c39 -22 200 -192 211 -223 13 -39 7 -269 -8
-287 -15 -19 -21 -17 -66 23 -42 36 -54 59 -57 104 -3 36 -15 60 -31 60 -14 0
-32 26 -37 57 -8 39 -22 60 -75 111 -47 45 -55 58 -55 90 0 80 -1 78 51 77 26
0 56 -6 67 -12z m-171 -256 c101 -6 137 -72 76 -141 -20 -23 -32 -48 -35 -77
-11 -94 -17 -112 -43 -136 -17 -16 -27 -36 -29 -61 -1 -20 -5 -53 -9 -72 -4
-19 -7 -38 -6 -42 1 -3 -6 -12 -14 -19 -16 -13 -160 -17 -172 -4 -12 12 -14
45 -14 285 1 230 2 246 20 260 19 16 40 17 226 7z m-2084 -447 c15 -57 5 -129
-29 -193 -27 -52 -30 -68 -31 -155 -1 -117 -1 -144 -1 -177 1 -14 0 -31 0 -37
0 -7 1 -30 3 -51 3 -21 2 -40 -1 -42 -6 -3 -5 -50 2 -188 1 -26 0 -47 -3 -47
-4 0 -4 -93 0 -210 0 -14 -1 -63 -2 -108 -2 -46 1 -86 5 -89 4 -3 4 -10 0 -16
-5 -7 -8 -27 -8 -44 0 -18 -2 -33 -6 -33 -4 0 -9 -9 -12 -20 -9 -36 -31 -20
-43 33 -1 4 -3 10 -4 15 -1 4 -2 23 -2 41 1 40 -13 70 -40 89 -24 17 -23 25
10 63 l27 33 1 465 c1 256 2 479 3 494 1 17 13 40 31 59 19 18 32 43 35 66 3
20 8 61 11 90 l7 53 19 -28 c10 -15 22 -44 28 -63z m2406 -153 c-3 -156 -10
-173 -73 -183 -25 -4 -49 -14 -56 -25 -30 -42 -74 -51 -165 -34 -9 2 -20 4
-24 4 -4 1 -9 10 -13 20 -4 15 23 48 125 150 71 72 131 139 132 149 1 9 2 25
3 34 0 9 9 26 20 38 l20 22 17 -22 c15 -18 17 -40 14 -153z m-2697 -285 c5
-10 10 -32 10 -48 0 -16 2 -103 3 -194 2 -100 0 -174 -7 -188 -12 -27 -39 -35
-80 -24 -37 10 -46 45 -16 61 26 14 31 44 36 223 4 138 13 188 35 188 5 0 14
-8 19 -18z m2707 -634 c41 -45 55 -77 65 -144 5 -37 14 -72 19 -79 9 -11 21
-109 22 -174 0 -39 -7 -48 -44 -55 -23 -4 -37 5 -83 48 -36 34 -55 60 -56 76
-5 110 -3 218 4 233 4 9 4 17 0 17 -11 0 -3 92 9 107 12 15 34 5 64 -29z
m-5126 -527 c3 0 20 -14 38 -31 18 -16 41 -31 50 -32 9 0 22 -2 27 -3 6 -2 17
-3 26 -4 29 -2 36 -51 38 -236 2 -212 5 -231 35 -262 20 -20 24 -34 26 -111 1
-48 3 -109 5 -137 2 -53 -5 -71 -45 -118 -38 -45 -60 -49 -93 -19 -23 22 -37
26 -95 28 -206 5 -205 5 -239 35 -21 18 -48 30 -80 34 -96 12 -119 23 -188 93
-44 44 -77 88 -95 127 -15 33 -52 88 -82 122 -37 43 -54 70 -52 85 1 13 3 28
3 35 2 21 60 80 97 98 20 9 53 18 73 20 47 4 81 15 81 26 0 5 7 9 15 9 8 0 15
5 15 10 0 6 11 10 25 10 14 0 63 20 108 44 66 34 92 43 125 41 32 -2 48 3 67
21 21 19 32 52 23 68 -2 3 7 15 20 29 19 21 41 26 72 18z m951 0 c67 -1 111
-5 122 -13 16 -12 15 -16 -10 -52 -37 -55 -37 -96 1 -169 l31 -60 2 -441 c1
-243 0 -456 -3 -475 -4 -22 -19 -46 -47 -72 -46 -44 -78 -56 -115 -43 -28 10
-38 36 -47 119 -5 38 -13 57 -36 78 -21 21 -29 38 -30 65 -1 83 -7 120 -24
145 -9 15 -21 27 -26 27 -15 0 -20 64 -24 300 -3 241 -5 256 -38 301 -12 18
-21 49 -24 90 -6 95 -32 143 -64 123 -5 -3 -9 -1 -9 3 0 8 -35 9 -65 3 -5 -1
-12 -2 -15 -1 -3 1 -54 4 -115 5 -60 2 -118 7 -127 11 -21 9 -23 28 -5 44 14
11 220 18 442 14 66 -1 168 -2 226 -2z m703 -10 c9 -7 16 -22 16 -32 0 -11 3
-19 6 -19 11 0 46 22 65 41 10 10 26 20 34 20 8 1 21 2 28 3 6 1 32 -12 57
-30 25 -18 54 -33 65 -35 27 -3 75 11 75 22 0 5 6 9 14 9 8 0 16 5 18 11 5 16
106 25 247 22 119 -2 125 -3 148 -27 29 -31 57 -33 80 -6 23 26 35 25 71 -5
36 -30 33 -30 63 -5 13 11 29 23 34 28 15 11 75 16 228 15 162 -1 168 -4 171
-82 1 -28 0 -51 -4 -51 -3 0 -21 11 -40 25 -43 32 -59 31 -113 -3 l-44 -28
-214 2 c-226 1 -278 -7 -280 -43 -4 -46 3 -79 21 -98 26 -27 25 -37 -5 -81
-18 -27 -25 -51 -26 -88 -1 -28 -2 -143 -4 -256 -3 -233 -7 -263 -38 -277 -29
-13 -117 -13 -142 -1 -36 19 -85 72 -85 92 1 12 11 45 24 74 19 44 23 74 25
175 7 328 5 312 45 370 31 46 35 57 27 79 -15 40 -46 56 -109 56 -31 0 -61 1
-67 2 -5 1 -12 2 -15 1 -16 -5 -310 -2 -326 3 -11 3 -25 19 -31 36 -13 34 -33
32 -68 -8 -28 -32 -64 -38 -211 -32 -69 3 -132 2 -139 -3 -8 -4 -16 -3 -20 2
-3 6 -12 8 -19 5 -19 -7 -43 31 -40 64 1 15 2 32 3 38 2 24 51 29 250 29 161
0 212 -3 225 -14z m4319 -60 c9 0 31 -14 49 -31 17 -16 34 -30 37 -30 3 0 19
14 34 30 16 17 33 30 37 30 14 0 30 -35 30 -64 0 -20 11 -33 48 -56 104 -66
161 -87 239 -89 62 -2 70 -23 68 -180 -2 -164 6 -147 -152 -306 -152 -152
-143 -145 -209 -151 -85 -7 -101 -12 -135 -41 -31 -28 -56 -32 -197 -34 -141
-1 -156 21 -155 231 2 187 7 234 35 272 13 18 25 40 27 48 15 60 18 78 15 95
-2 11 -5 54 -8 95 -4 61 -9 78 -27 93 -25 20 -12 19 -255 21 -131 2 -201 6
-222 15 -40 17 -40 24 -2 42 25 11 95 14 378 13 191 -1 355 -2 365 -3z m-2520
-10 c16 -2 29 -59 31 -131 2 -99 21 -135 116 -220 90 -82 104 -113 94 -217 -4
-37 -5 -79 -4 -93 1 -14 3 -69 4 -123 1 -83 -2 -101 -16 -111 -14 -10 -96 -13
-355 -12 -283 1 -341 3 -359 16 -11 8 -21 22 -22 30 0 8 -3 28 -5 44 -7 43 10
82 63 156 26 36 52 75 59 87 7 14 12 109 13 267 2 135 5 246 8 247 3 0 37 1
75 3 41 2 105 14 155 30 106 35 102 34 120 30 8 -1 18 -3 23 -3z m1399 -168
l42 -85 3 -309 c4 -365 9 -349 -100 -346 -37 1 -71 8 -80 16 -16 12 -15 15 1
40 42 60 44 80 47 408 2 327 3 339 20 359 15 18 21 10 67 -83z m-3158 24 c27
-20 30 -116 6 -181 -27 -71 -32 -110 -35 -281 -4 -190 -4 -187 -15 -205 -7
-12 -12 -11 -30 5 -20 18 -21 26 -20 329 2 267 4 313 17 329 19 20 52 22 77 4z
m3531 -647 c18 -35 14 -590 -5 -665 -16 -62 -47 -135 -57 -136 -67 -7 -72 -6
-94 18 -23 24 -24 30 -25 206 0 100 1 185 3 189 2 5 5 91 6 192 3 224 3 225
115 223 36 -1 46 -5 57 -27z"/>
<path d="M2043 6860 c-44 -20 -77 -54 -88 -90 -5 -14 -9 -90 -11 -170 -3 -167
-4 -170 -37 -230 -32 -56 -31 -130 1 -182 27 -44 31 -104 10 -143 -15 -28 -66
-78 -188 -182 -133 -114 -197 -196 -225 -291 -3 -12 -15 -27 -25 -32 -19 -10
-24 -29 -34 -120 -5 -42 -8 -57 -21 -110 -3 -11 -7 -28 -9 -37 -2 -10 -11 -45
-20 -78 -22 -79 -24 -88 -25 -102 -1 -7 -19 -29 -42 -50 -23 -21 -53 -58 -68
-83 l-26 -45 0 -629 c0 -739 2 -787 39 -875 15 -35 26 -73 25 -85 0 -11 0 -23
0 -26 1 -3 4 -131 6 -285 5 -285 9 -318 46 -359 19 -20 15 -40 -13 -68 -28
-28 -22 -45 34 -99 72 -69 156 -109 240 -114 46 -2 88 -13 136 -34 l70 -31
173 3 c133 3 181 7 203 19 l30 15 -25 14 c-13 7 -30 12 -36 11 -7 -2 -13 1
-13 5 0 4 -53 8 -117 7 -109 -1 -118 0 -140 22 -16 16 -23 35 -23 62 0 30 -7
47 -30 70 -17 18 -30 37 -31 44 -1 7 -2 142 -4 300 -2 272 -10 348 -34 348
-21 0 -35 53 -38 139 -3 90 -4 97 -35 135 -33 41 -33 42 -34 156 -1 74 -7 131
-17 160 -16 46 -31 103 -42 155 -4 17 -9 91 -11 165 -6 176 -10 197 -39 216
-21 14 -35 49 -40 99 -2 16 16 56 52 115 18 30 34 65 36 78 5 32 10 35 134 82
61 23 114 49 118 58 10 26 -14 40 -80 44 -44 3 -70 10 -84 22 l-21 19 21 15
c11 7 48 16 82 19 73 5 97 21 72 47 -9 9 -33 16 -53 17 -55 1 -135 7 -153 11
-51 12 -110 84 -111 137 -1 17 12 49 31 77 30 46 36 84 31 209 -1 11 34 71 52
92 11 12 17 26 14 32 -12 19 24 71 97 143 81 80 97 88 173 88 45 0 58 4 76 25
29 33 68 44 164 46 58 1 87 6 103 18 20 16 21 19 7 30 -9 8 -30 15 -46 17 -36
4 -80 31 -80 49 0 7 -20 18 -45 25 -95 27 -113 72 -55 139 31 35 30 51 -2 87
-20 22 -29 59 -30 123 -1 72 2 91 21 110 11 11 17 22 14 25 -4 3 -2 6 4 6 20
0 22 29 4 52 -30 40 -31 55 -5 81 22 22 26 36 28 106 3 76 5 82 36 111 25 24
30 33 21 44 -19 22 -57 24 -98 6z"/>
<path d="M4077 5824 c-1 -2 -31 -4 -66 -6 -34 -2 -67 -8 -72 -14 -16 -19 -19
-54 -7 -80 11 -23 38 -34 38 -15 0 9 28 22 58 27 7 1 24 -9 37 -22 13 -13 32
-24 42 -25 10 -1 74 -2 143 -3 111 -1 127 1 144 18 19 19 18 19 -9 33 -15 8
-39 17 -54 19 -14 3 -35 6 -47 8 -11 2 -37 15 -57 29 -40 27 -134 47 -150 31z"/>
</g>
</svg>
